<svg width="35" height="34" viewBox="0 0 35 34" fill="none" xmlns="http://www.w3.org/2000/svg">
<path d="M8.34995 31.9486C5.75382 30.5813 3.71109 28.6281 2.22991 26.0889C0.748728 23.5498 0 20.563 0 17.1205C0 13.678 0.748728 10.7563 2.25432 8.21712C3.75992 5.67795 5.81078 3.72475 8.40692 2.35751C11.0031 0.990263 13.941 0.306641 17.2289 0.306641C20.5168 0.306641 23.4466 0.990263 26.0509 2.35751C28.647 3.72475 30.6979 5.67795 32.2035 8.21712C33.7091 10.7563 34.4578 13.7268 34.4578 17.1205C34.4578 20.5142 33.7091 23.5009 32.2035 26.0564C30.6979 28.6118 28.6389 30.5813 26.0183 31.9486C23.3978 33.3158 20.4517 33.9994 17.1719 33.9994C13.8922 33.9994 10.9542 33.3158 8.34995 31.9486ZM21.1841 22.2476C22.2584 21.0594 22.7955 19.3504 22.7955 17.1205C22.7955 14.8906 22.2584 13.1978 21.1841 12.0259C20.1099 10.8539 18.7915 10.268 17.2289 10.268C15.6663 10.268 14.3561 10.8539 13.3062 12.0259C12.2482 13.1978 11.7274 14.8987 11.7274 17.1205C11.7274 19.3422 12.2319 21.1083 13.2492 22.2802C14.2665 23.4521 15.5768 24.0381 17.1719 24.0381C18.767 24.0381 20.1099 23.444 21.1841 22.2476Z" fill="#231815"/>
</svg>
