<svg width="22" height="22" viewBox="0 0 22 22" fill="none" xmlns="http://www.w3.org/2000/svg">
<path fill-rule="evenodd" clip-rule="evenodd" d="M0 10.9961C0 4.92109 4.925 -0.00390625 11 -0.00390625C17.075 -0.00390625 22 4.92109 22 10.9961C22 17.0711 17.075 21.9961 11 21.9961C4.925 21.9961 0 17.0711 0 10.9961ZM11 19.9961C9.8181 19.9961 8.64778 19.7633 7.55585 19.311C6.46392 18.8587 5.47177 18.1958 4.63604 17.3601C3.80031 16.5243 3.13738 15.5322 2.68508 14.4402C2.23279 13.3483 2 12.178 2 10.9961C2 9.8142 2.23279 8.64387 2.68508 7.55194C3.13738 6.46001 3.80031 5.46786 4.63604 4.63213C5.47177 3.79641 6.46392 3.13347 7.55585 2.68118C8.64778 2.22889 9.8181 1.99609 11 1.99609C13.3869 1.99609 15.6761 2.94431 17.364 4.63213C19.0518 6.31996 20 8.60915 20 10.9961C20 13.383 19.0518 15.6722 17.364 17.3601C15.6761 19.0479 13.3869 19.9961 11 19.9961Z" fill="#4EC0E1"/>
</svg>
