<svg width="12" height="3" viewBox="0 0 12 3" fill="none" xmlns="http://www.w3.org/2000/svg">
<path d="M6.3644 2.94195L11.6744 0.715769C11.763 0.678624 11.8125 0.629274 11.8125 0.577956C11.8125 0.526637 11.763 0.477288 11.6744 0.440143L11.6684 0.437746C11.6254 0.419676 11.5737 0.405288 11.5164 0.395456C11.459 0.385624 11.3973 0.380553 11.3349 0.380553C11.2725 0.380553 11.2108 0.385624 11.1534 0.395456C11.0961 0.405288 11.0444 0.419676 11.0014 0.437746L6.0014 2.5341L1.00341 0.437745C0.960432 0.419676 0.908705 0.405288 0.851372 0.395455C0.794039 0.385623 0.732298 0.380553 0.669905 0.380553C0.607512 0.380553 0.545771 0.385623 0.488438 0.395455C0.431105 0.405288 0.379379 0.419676 0.336405 0.437745L0.330405 0.440142C0.24176 0.477287 0.192309 0.526637 0.192309 0.577955C0.192309 0.629274 0.24176 0.678624 0.330405 0.715769L5.6404 2.94195C5.6871 2.96153 5.74327 2.97711 5.80549 2.98776C5.86772 2.99841 5.93471 3.00391 6.0024 3.00391C6.0701 3.00391 6.13709 2.99841 6.19932 2.98776C6.26154 2.97711 6.31771 2.96153 6.3644 2.94195Z" fill="black"/>
</svg>
