<svg width="26" height="26" viewBox="0 0 26 26" fill="none" xmlns="http://www.w3.org/2000/svg">
<path d="M23.4615 3.65466C25.1405 5.54682 25.9739 8.0982 25.9739 11.321V25.6892H17.3274V12.4624C17.3274 11.0585 16.9597 9.94764 16.2244 9.14194C15.489 8.33625 14.5024 7.9334 13.2707 7.9334C12.039 7.9334 10.9605 8.33625 10.2251 9.14194C9.48979 9.94764 9.12211 11.0524 9.12211 12.4624V25.6892H0.475586V1.03614H9.12211V4.55191C9.8881 3.44103 10.9176 2.53767 12.2106 1.84794C13.5036 1.15822 14.9927 0.816406 16.6656 0.816406C19.5212 0.816406 21.7824 1.76249 23.4615 3.64855V3.65466Z" fill="#231815"/>
</svg>
