<svg width="34" height="34" viewBox="0 0 34 34" fill="none" xmlns="http://www.w3.org/2000/svg">
<path d="M30.6725 4.20621C32.9024 6.7291 34.0092 10.1309 34.0092 14.428V33.5857H22.526V15.9499C22.526 14.078 22.0377 12.5969 21.0611 11.5226C20.0845 10.4483 18.7742 9.91119 17.1384 9.91119C15.5026 9.91119 14.0702 10.4483 13.0936 11.5226C12.117 12.5969 11.6287 14.0699 11.6287 15.9499V33.5857H0.145508V0.714856H11.6287V5.40255C12.646 3.92137 14.0133 2.71689 15.7305 1.79726C17.4476 0.877623 19.4253 0.421875 21.647 0.421875C25.4395 0.421875 28.4426 1.68332 30.6725 4.19807V4.20621Z" fill="#231815"/>
</svg>
