<svg width="22" height="22" viewBox="0 0 22 22" fill="none" xmlns="http://www.w3.org/2000/svg">
<path fill-rule="evenodd" clip-rule="evenodd" d="M0 10.998C0 4.92305 4.925 -0.00195312 11 -0.00195312C17.075 -0.00195312 22 4.92305 22 10.998C22 17.073 17.075 21.998 11 21.998C4.925 21.998 0 17.073 0 10.998ZM11 19.998C9.8181 19.998 8.64778 19.7653 7.55585 19.313C6.46392 18.8607 5.47177 18.1977 4.63604 17.362C3.80031 16.5263 3.13738 15.5341 2.68508 14.4422C2.23279 13.3503 2 12.1799 2 10.998C2 9.81615 2.23279 8.64583 2.68508 7.5539C3.13738 6.46197 3.80031 5.46981 4.63604 4.63409C5.47177 3.79836 6.46392 3.13542 7.55585 2.68313C8.64778 2.23084 9.8181 1.99805 11 1.99805C13.3869 1.99805 15.6761 2.94626 17.364 4.63409C19.0518 6.32191 20 8.6111 20 10.998C20 13.385 19.0518 15.6742 17.364 17.362C15.6761 19.0498 13.3869 19.998 11 19.998Z" fill="#4EC0E1"/>
</svg>
