<svg width="26" height="26" viewBox="0 0 26 26" fill="none" xmlns="http://www.w3.org/2000/svg">
<path d="M23.4605 3.65466C25.1396 5.54682 25.973 8.0982 25.973 11.321V25.6892H17.3264V12.4624C17.3264 11.0585 16.9588 9.94764 16.2234 9.14194C15.4881 8.33625 14.5015 7.9334 13.2698 7.9334C12.038 7.9334 10.9595 8.33625 10.2242 9.14194C9.48881 9.94764 9.12113 11.0524 9.12113 12.4624V25.6892H0.474609V1.03614H9.12113V4.55191C9.88713 3.44103 10.9166 2.53767 12.2096 1.84794C13.5026 1.15822 14.9917 0.816406 16.6646 0.816406C19.5202 0.816406 21.7815 1.76249 23.4605 3.64855V3.65466Z" fill="#231815"/>
</svg>
