<svg width="26" height="26" viewBox="0 0 26 26" fill="none" xmlns="http://www.w3.org/2000/svg">
<path d="M6.28727 24.4619C4.33245 23.4365 2.79434 21.9716 1.67906 20.0672C0.56377 18.1628 0 15.9227 0 13.3408C0 10.759 0.56377 8.5677 1.69744 6.66333C2.83111 4.75895 4.37535 3.29405 6.33016 2.26862C8.28498 1.24319 10.4972 0.730469 12.9728 0.730469C15.4485 0.730469 17.6546 1.24319 19.6155 2.26862C21.5703 3.29405 23.1146 4.75895 24.2483 6.66333C25.3819 8.5677 25.9457 10.7956 25.9457 13.3408C25.9457 15.8861 25.3819 18.1262 24.2483 20.0428C23.1146 21.9594 21.5642 23.4365 19.591 24.4619C17.6178 25.4873 15.3995 26.0001 12.93 26.0001C10.4604 26.0001 8.24821 25.4873 6.28727 24.4619ZM15.951 17.1862C16.7599 16.2951 17.1644 15.0133 17.1644 13.3408C17.1644 11.6684 16.7599 10.3988 15.951 9.51989C15.1421 8.64095 14.1494 8.20148 12.9728 8.20148C11.7963 8.20148 10.8097 8.64095 10.0192 9.51989C9.22255 10.3988 8.83036 11.6745 8.83036 13.3408C8.83036 15.0072 9.21029 16.3317 9.97629 17.2106C10.7423 18.0896 11.7289 18.529 12.93 18.529C14.131 18.529 15.1421 18.0835 15.951 17.1862Z" fill="#231815"/>
</svg>
