<svg width="15" height="12" viewBox="0 0 15 12" fill="none" xmlns="http://www.w3.org/2000/svg">
<path d="M2.74682 10.1651C1.51793 9.05017 0.899414 7.65851 0.899414 5.97388C0.899414 4.28924 1.51793 2.83247 2.74682 1.6931C3.97571 0.561872 5.61151 -0.0078125 7.63796 -0.0078125C9.66441 -0.0078125 11.2433 0.561872 12.4721 1.6931C13.701 2.82433 14.3195 4.24855 14.3195 5.97388C14.3195 7.69921 13.701 9.05017 12.4721 10.1651C11.2433 11.2801 9.63186 11.8335 7.63796 11.8335C5.64406 11.8335 3.97571 11.2801 2.74682 10.1651Z" fill="#4EC0E1"/>
<path d="M2.74682 10.1651C1.51793 9.05017 0.899414 7.65851 0.899414 5.97388C0.899414 4.28924 1.51793 2.83247 2.74682 1.6931C3.97571 0.561872 5.61151 -0.0078125 7.63796 -0.0078125C9.66441 -0.0078125 11.2433 0.561872 12.4721 1.6931C13.701 2.82433 14.3195 4.24855 14.3195 5.97388C14.3195 7.69921 13.701 9.05017 12.4721 10.1651C11.2433 11.2801 9.63186 11.8335 7.63796 11.8335C5.64406 11.8335 3.97571 11.2801 2.74682 10.1651Z" fill="black" fill-opacity="0.2"/>
</svg>
