<svg width="26" height="26" viewBox="0 0 26 26" fill="none" xmlns="http://www.w3.org/2000/svg">
<path d="M25.2993 15.097H8.93155C9.01734 16.446 9.39728 17.447 10.0591 18.1062C10.7209 18.7654 11.5666 19.095 12.5961 19.095C14.0361 19.095 15.0656 18.448 15.6845 17.1601H24.9071C24.5272 18.8569 23.7796 20.3768 22.6765 21.7074C21.5735 23.0441 20.1825 24.0879 18.5095 24.8508C16.8305 25.6138 14.9798 25.9922 12.9515 25.9922C10.5126 25.9922 8.34327 25.4795 6.44361 24.4541C4.54395 23.4287 3.06099 21.9638 1.9886 20.0594C0.916215 18.155 0.376953 15.9149 0.376953 13.333C0.376953 10.7511 0.903954 8.52327 1.96409 6.6311C3.02422 4.73893 4.50106 3.28624 6.40072 2.26081C8.30038 1.23537 10.4819 0.722656 12.9515 0.722656C15.421 0.722656 17.5536 1.22317 19.4348 2.21808C21.3161 3.21299 22.7868 4.64127 23.847 6.50292C24.9071 8.36457 25.4341 10.5558 25.4341 13.0706C25.4341 13.742 25.3912 14.4195 25.2993 15.0909V15.097ZM16.6099 10.922C16.6099 9.86609 16.2544 9.04209 15.5497 8.43781C14.845 7.83964 13.9626 7.53446 12.9025 7.53446C11.8423 7.53446 10.9783 7.82133 10.2981 8.38898C9.62401 8.96274 9.1828 9.80506 8.97445 10.9159H16.6099V10.922Z" fill="#231815"/>
</svg>
