<svg width="36" height="44" viewBox="0 0 36 44" fill="none" xmlns="http://www.w3.org/2000/svg">
<path d="M2.35521 18.2182C3.5841 15.679 5.27689 13.7258 7.42541 12.3586C9.57394 10.9913 11.9585 10.3077 14.5709 10.3077C16.6787 10.3077 18.5668 10.7472 20.227 11.6261C21.8873 12.5051 23.1894 13.7095 24.1253 15.2314V0.232422H35.6655V43.5936H24.1253V39.0198C23.2301 40.5417 21.9605 41.7543 20.3166 42.6495C18.6726 43.5447 16.7438 44.0005 14.5139 44.0005C11.8934 44.0005 9.5251 43.3169 7.39285 41.9496C5.2606 40.5824 3.5841 38.621 2.35521 36.0574C1.12632 33.502 0.507812 30.5234 0.507812 27.1215C0.507812 23.7197 1.12632 20.7573 2.35521 18.2182ZM22.457 22.1409C21.3013 20.9283 19.8852 20.326 18.2087 20.326C16.5322 20.326 15.0673 20.9201 13.9279 22.1165C12.7967 23.3047 12.227 24.9812 12.227 27.1297C12.227 29.2782 12.7967 30.9059 13.9279 32.1429C15.0592 33.3718 16.4834 33.9903 18.2087 33.9903C19.9341 33.9903 21.3013 33.3881 22.457 32.1755C23.6126 30.9628 24.1823 29.2863 24.1823 27.1378C24.1823 24.9893 23.6045 23.3698 22.457 22.1571V22.1409Z" fill="#231815"/>
</svg>
