<svg width="34" height="34" viewBox="0 0 34 34" fill="none" xmlns="http://www.w3.org/2000/svg">
<path d="M33.4698 19.4646H11.7322C11.8462 21.2632 12.3507 22.5979 13.2297 23.4769C14.1086 24.3558 15.2317 24.7953 16.599 24.7953C18.5115 24.7953 19.8787 23.9326 20.7007 22.2154H32.9489C32.4443 24.4779 31.4515 26.5043 29.9866 28.2785C28.5217 30.0608 26.6742 31.4524 24.4525 32.4697C22.2226 33.487 19.7648 33.9916 17.071 33.9916C13.8319 33.9916 10.9509 33.308 8.42806 31.9407C5.90517 30.5735 3.9357 28.6203 2.51148 26.0811C1.08727 23.542 0.371094 20.5552 0.371094 17.1127C0.371094 13.6701 1.07099 10.6996 2.47892 8.17675C3.88686 5.65386 5.84821 3.71694 8.37109 2.34969C10.894 0.98245 13.7912 0.298828 17.071 0.298828C20.3507 0.298828 23.1829 0.966174 25.6814 2.29272C28.1798 3.61928 30.133 5.52365 31.541 8.00585C32.9489 10.488 33.6488 13.4097 33.6488 16.7627C33.6488 17.6579 33.5918 18.5613 33.4698 19.4565V19.4646ZM21.9296 13.898C21.9296 12.4901 21.4576 11.3914 20.5216 10.5857C19.5857 9.78815 18.4138 9.38123 17.0059 9.38123C15.598 9.38123 14.4504 9.76373 13.5471 10.5206C12.6519 11.2856 12.0659 12.4087 11.7892 13.8899H21.9296V13.898Z" fill="#231815"/>
</svg>
