<svg width="27" height="33" viewBox="0 0 27 33" fill="none" xmlns="http://www.w3.org/2000/svg">
<path d="M1.53166 13.6651C2.45698 11.7607 3.7316 10.2958 5.34937 9.27039C6.96715 8.24496 8.76263 7.73224 10.7297 7.73224C12.3168 7.73224 13.7385 8.06185 14.9886 8.72105C16.2387 9.38026 17.2192 10.2836 17.9239 11.425V0.175781H26.6133V32.6966H17.9239V29.2663C17.2498 30.4077 16.2939 31.3172 15.056 31.9886C13.8182 32.66 12.3659 33.0018 10.6868 33.0018C8.7136 33.0018 6.93037 32.4891 5.32485 31.4637C3.71934 30.4382 2.45698 28.9672 1.53166 27.0446C0.606342 25.128 0.140625 22.894 0.140625 20.3426C0.140625 17.7912 0.606342 15.5695 1.53166 13.6651ZM16.6677 16.6071C15.7975 15.6977 14.7312 15.246 13.4689 15.246C12.2065 15.246 11.1035 15.6915 10.2456 16.5888C9.3938 17.48 8.96485 18.7373 8.96485 20.3487C8.96485 21.9601 9.3938 23.1809 10.2456 24.1086C11.0974 25.0303 12.1698 25.4942 13.4689 25.4942C14.768 25.4942 15.7975 25.0425 16.6677 24.1331C17.5378 23.2236 17.9668 21.9662 17.9668 20.3548C17.9668 18.7434 17.5317 17.5288 16.6677 16.6193V16.6071Z" fill="#231815"/>
</svg>
