<svg width="15" height="12" viewBox="0 0 15 12" fill="none" xmlns="http://www.w3.org/2000/svg">
<path d="M2.74584 10.1651C1.51695 9.05017 0.898438 7.65851 0.898438 5.97388C0.898438 4.28924 1.51695 2.83247 2.74584 1.6931C3.97473 0.561872 5.61053 -0.0078125 7.63698 -0.0078125C9.66343 -0.0078125 11.2423 0.561872 12.4712 1.6931C13.7001 2.82433 14.3186 4.24855 14.3186 5.97388C14.3186 7.69921 13.7001 9.05017 12.4712 10.1651C11.2423 11.2801 9.63088 11.8335 7.63698 11.8335C5.64309 11.8335 3.97473 11.2801 2.74584 10.1651Z" fill="#4EC0E1"/>
<path d="M2.74584 10.1651C1.51695 9.05017 0.898438 7.65851 0.898438 5.97388C0.898438 4.28924 1.51695 2.83247 2.74584 1.6931C3.97473 0.561872 5.61053 -0.0078125 7.63698 -0.0078125C9.66343 -0.0078125 11.2423 0.561872 12.4712 1.6931C13.7001 2.82433 14.3186 4.24855 14.3186 5.97388C14.3186 7.69921 13.7001 9.05017 12.4712 10.1651C11.2423 11.2801 9.63088 11.8335 7.63698 11.8335C5.64309 11.8335 3.97473 11.2801 2.74584 10.1651Z" fill="black" fill-opacity="0.2"/>
</svg>
