<svg width="22" height="22" viewBox="0 0 22 22" fill="none" xmlns="http://www.w3.org/2000/svg">
<path fill-rule="evenodd" clip-rule="evenodd" d="M0 11.002C0 4.92695 4.925 0.00195312 11 0.00195312C17.075 0.00195312 22 4.92695 22 11.002C22 17.077 17.075 22.002 11 22.002C4.925 22.002 0 17.077 0 11.002ZM11 20.002C9.8181 20.002 8.64778 19.7692 7.55585 19.3169C6.46392 18.8646 5.47177 18.2016 4.63604 17.3659C3.80031 16.5302 3.13738 15.538 2.68508 14.4461C2.23279 13.3542 2 12.1839 2 11.002C2 9.82006 2.23279 8.64973 2.68508 7.5578C3.13738 6.46587 3.80031 5.47372 4.63604 4.63799C5.47177 3.80226 6.46392 3.13933 7.55585 2.68704C8.64778 2.23475 9.8181 2.00195 11 2.00195C13.3869 2.00195 15.6761 2.95016 17.364 4.63799C19.0518 6.32582 20 8.615 20 11.002C20 13.3889 19.0518 15.6781 17.364 17.3659C15.6761 19.0537 13.3869 20.002 11 20.002Z" fill="#4EC0E1"/>
</svg>
