<svg width="27" height="33" viewBox="0 0 27 33" fill="none" xmlns="http://www.w3.org/2000/svg">
<path d="M1.53166 13.6631C2.45698 11.7588 3.7316 10.2939 5.34937 9.26844C6.96715 8.243 8.76263 7.73029 10.7297 7.73029C12.3168 7.73029 13.7385 8.05989 14.9886 8.7191C16.2387 9.37831 17.2192 10.2817 17.9239 11.4231V0.173828H26.6133V32.6947H17.9239V29.2644C17.2498 30.4058 16.2939 31.3152 15.056 31.9866C13.8182 32.6581 12.3659 32.9999 10.6868 32.9999C8.7136 32.9999 6.93037 32.4872 5.32485 31.4617C3.71934 30.4363 2.45698 28.9653 1.53166 27.0426C0.606342 25.126 0.140625 22.892 0.140625 20.3407C0.140625 17.7893 0.606342 15.5675 1.53166 13.6631ZM16.6677 16.6052C15.7975 15.6957 14.7312 15.244 13.4689 15.244C12.2065 15.244 11.1035 15.6896 10.2456 16.5868C9.3938 17.478 8.96485 18.7354 8.96485 20.3468C8.96485 21.9582 9.3938 23.1789 10.2456 24.1067C11.0974 25.0284 12.1698 25.4922 13.4689 25.4922C14.768 25.4922 15.7975 25.0406 16.6677 24.1311C17.5378 23.2216 17.9668 21.9643 17.9668 20.3529C17.9668 18.7415 17.5317 17.5268 16.6677 16.6174V16.6052Z" fill="#231815"/>
</svg>
