<svg width="26" height="26" viewBox="0 0 26 26" fill="none" xmlns="http://www.w3.org/2000/svg">
<path d="M25.3012 15.099H8.9335C9.0193 16.4479 9.39923 17.4489 10.0611 18.1081C10.7229 18.7673 11.5685 19.0969 12.598 19.0969C14.0381 19.0969 15.0676 18.4499 15.6865 17.162H24.909C24.5291 18.8589 23.7815 20.3787 22.6785 21.7094C21.5754 23.0461 20.1844 24.0898 18.5115 24.8528C16.8324 25.6158 14.9818 25.9942 12.9534 25.9942C10.5145 25.9942 8.34522 25.4815 6.44556 24.456C4.5459 23.4306 3.06295 21.9657 1.99056 20.0613C0.918168 18.157 0.378906 15.9169 0.378906 13.335C0.378906 10.7531 0.905907 8.52522 1.96604 6.63305C3.02617 4.74089 4.50301 3.28819 6.40267 2.26276C8.30233 1.23733 10.4839 0.724609 12.9534 0.724609C15.423 0.724609 17.5555 1.22512 19.4368 2.22003C21.3181 3.21495 22.7888 4.64323 23.8489 6.50487C24.909 8.36652 25.436 10.5578 25.436 13.0725C25.436 13.7439 25.3932 14.4215 25.3012 15.0929V15.099ZM16.6118 10.924C16.6118 9.86805 16.2564 9.04404 15.5517 8.43977C14.847 7.8416 13.9645 7.53641 12.9044 7.53641C11.8443 7.53641 10.9802 7.82329 10.3 8.39094C9.62597 8.96469 9.18475 9.80701 8.9764 10.9179H16.6118V10.924Z" fill="#231815"/>
</svg>
