<svg width="26" height="26" viewBox="0 0 26 26" fill="none" xmlns="http://www.w3.org/2000/svg">
<path d="M23.4625 3.65466C25.1415 5.54682 25.9749 8.0982 25.9749 11.321V25.6892H17.3284V12.4624C17.3284 11.0585 16.9607 9.94764 16.2254 9.14194C15.49 8.33625 14.5034 7.9334 13.2717 7.9334C12.04 7.9334 10.9615 8.33625 10.2261 9.14194C9.49076 9.94764 9.12309 11.0524 9.12309 12.4624V25.6892H0.476562V1.03614H9.12309V4.55191C9.88908 3.44103 10.9186 2.53767 12.2116 1.84794C13.5046 1.15822 14.9937 0.816406 16.6666 0.816406C19.5222 0.816406 21.7834 1.76249 23.4625 3.64855V3.65466Z" fill="#231815"/>
</svg>
