<svg width="34" height="34" viewBox="0 0 34 34" fill="none" xmlns="http://www.w3.org/2000/svg">
<path d="M30.6715 4.20621C32.9014 6.7291 34.0082 10.1309 34.0082 14.428V33.5857H22.525V15.9499C22.525 14.078 22.0367 12.5969 21.0601 11.5226C20.0835 10.4483 18.7732 9.91119 17.1374 9.91119C15.5016 9.91119 14.0693 10.4483 13.0927 11.5226C12.116 12.5969 11.6277 14.0699 11.6277 15.9499V33.5857H0.144531V0.714856H11.6277V5.40255C12.645 3.92137 14.0123 2.71689 15.7295 1.79726C17.4467 0.877623 19.4243 0.421875 21.6461 0.421875C25.4385 0.421875 28.4416 1.68332 30.6715 4.19807V4.20621Z" fill="#231815"/>
</svg>
